# MagicaVoxel @ Ephtracy

# group
g fir_tree2

# material
mtllib fir_tree2.mtl
usemtl palette

# normals
vn -1 0 0
vn 1 0 0
vn 0 0 1
vn 0 0 -1
vn 0 -1 0
vn 0 1 0

# texcoords
vt 0.537109 0.5
vt 0.748047 0.5

# verts
v -22.5 18 22.5
v -22.5 18 -22.5
v -22.5 23 22.5
v -22.5 23 -22.5
v -19.5 23 19.5
v -19.5 23 -19.5
v -19.5 29 19.5
v -19.5 29 -19.5
v -16.5 29 16.5
v -16.5 29 -16.5
v -16.5 34 16.5
v -16.5 34 -16.5
v -13.5 34 13.5
v -13.5 34 -13.5
v -13.5 40 13.5
v -13.5 40 -13.5
v -10.5 40 10.5
v -10.5 40 -10.5
v -10.5 46 10.5
v -10.5 46 -10.5
v -8.5 0 2.5
v -8.5 0 -2.5
v -8.5 1 2.5
v -8.5 1 -2.5
v -7.5 0 4.5
v -7.5 0 2.5
v -7.5 0 -2.5
v -7.5 0 -4.5
v -7.5 1 4.5
v -7.5 1 2.5
v -7.5 1 -2.5
v -7.5 1 -4.5
v -7.5 46 7.5
v -7.5 46 -7.5
v -7.5 51 7.5
v -7.5 51 -7.5
v -6.5 0 6.5
v -6.5 0 4.5
v -6.5 0 -4.5
v -6.5 0 -6.5
v -6.5 1 6.5
v -6.5 1 4.5
v -6.5 1 2.5
v -6.5 1 -2.5
v -6.5 1 -4.5
v -6.5 1 -6.5
v -6.5 2 2.5
v -6.5 2 -2.5
v -5.5 1 4.5
v -5.5 1 2.5
v -5.5 1 -2.5
v -5.5 1 -4.5
v -5.5 2 4.5
v -5.5 2 2.5
v -5.5 2 -2.5
v -5.5 2 -4.5
v -4.5 0 7.5
v -4.5 0 6.5
v -4.5 0 -6.5
v -4.5 0 -7.5
v -4.5 1 7.5
v -4.5 1 6.5
v -4.5 1 5.5
v -4.5 1 4.5
v -4.5 1 -4.5
v -4.5 1 -5.5
v -4.5 1 -6.5
v -4.5 1 -7.5
v -4.5 2 5.5
v -4.5 2 4.5
v -4.5 2 2.5
v -4.5 2 -2.5
v -4.5 2 -4.5
v -4.5 2 -5.5
v -4.5 18 2.5
v -4.5 18 -2.5
v -4.5 51 4.5
v -4.5 51 -4.5
v -4.5 57 4.5
v -4.5 57 -4.5
v -3.5 2 3.5
v -3.5 2 2.5
v -3.5 2 -2.5
v -3.5 2 -3.5
v -3.5 18 3.5
v -3.5 18 2.5
v -3.5 18 -2.5
v -3.5 18 -3.5
v -2.5 0 8.5
v -2.5 0 7.5
v -2.5 0 -7.5
v -2.5 0 -8.5
v -2.5 1 8.5
v -2.5 1 7.5
v -2.5 1 6.5
v -2.5 1 5.5
v -2.5 1 -5.5
v -2.5 1 -6.5
v -2.5 1 -7.5
v -2.5 1 -8.5
v -2.5 2 6.5
v -2.5 2 5.5
v -2.5 2 4.5
v -2.5 2 3.5
v -2.5 2 -3.5
v -2.5 2 -4.5
v -2.5 2 -5.5
v -2.5 2 -6.5
v -2.5 18 4.5
v -2.5 18 3.5
v -2.5 18 -3.5
v -2.5 18 -4.5
v 2.5 0 8.5
v 2.5 0 7.5
v 2.5 0 -7.5
v 2.5 0 -8.5
v 2.5 1 8.5
v 2.5 1 7.5
v 2.5 1 6.5
v 2.5 1 5.5
v 2.5 1 -5.5
v 2.5 1 -6.5
v 2.5 1 -7.5
v 2.5 1 -8.5
v 2.5 2 6.5
v 2.5 2 5.5
v 2.5 2 4.5
v 2.5 2 3.5
v 2.5 2 -3.5
v 2.5 2 -4.5
v 2.5 2 -5.5
v 2.5 2 -6.5
v 2.5 18 4.5
v 2.5 18 3.5
v 2.5 18 -3.5
v 2.5 18 -4.5
v 3.5 2 3.5
v 3.5 2 2.5
v 3.5 2 -2.5
v 3.5 2 -3.5
v 3.5 18 3.5
v 3.5 18 2.5
v 3.5 18 -2.5
v 3.5 18 -3.5
v 4.5 0 7.5
v 4.5 0 6.5
v 4.5 0 -6.5
v 4.5 0 -7.5
v 4.5 1 7.5
v 4.5 1 6.5
v 4.5 1 5.5
v 4.5 1 4.5
v 4.5 1 -4.5
v 4.5 1 -5.5
v 4.5 1 -6.5
v 4.5 1 -7.5
v 4.5 2 5.5
v 4.5 2 4.5
v 4.5 2 2.5
v 4.5 2 -2.5
v 4.5 2 -4.5
v 4.5 2 -5.5
v 4.5 18 2.5
v 4.5 18 -2.5
v 4.5 51 4.5
v 4.5 51 -4.5
v 4.5 57 4.5
v 4.5 57 -4.5
v 5.5 1 4.5
v 5.5 1 2.5
v 5.5 1 -2.5
v 5.5 1 -4.5
v 5.5 2 4.5
v 5.5 2 2.5
v 5.5 2 -2.5
v 5.5 2 -4.5
v 6.5 0 6.5
v 6.5 0 4.5
v 6.5 0 -4.5
v 6.5 0 -6.5
v 6.5 1 6.5
v 6.5 1 4.5
v 6.5 1 2.5
v 6.5 1 -2.5
v 6.5 1 -4.5
v 6.5 1 -6.5
v 6.5 2 2.5
v 6.5 2 -2.5
v 7.5 0 4.5
v 7.5 0 2.5
v 7.5 0 -2.5
v 7.5 0 -4.5
v 7.5 1 4.5
v 7.5 1 2.5
v 7.5 1 -2.5
v 7.5 1 -4.5
v 7.5 46 7.5
v 7.5 46 -7.5
v 7.5 51 7.5
v 7.5 51 -7.5
v 8.5 0 2.5
v 8.5 0 -2.5
v 8.5 1 2.5
v 8.5 1 -2.5
v 10.5 40 10.5
v 10.5 40 -10.5
v 10.5 46 10.5
v 10.5 46 -10.5
v 13.5 34 13.5
v 13.5 34 -13.5
v 13.5 40 13.5
v 13.5 40 -13.5
v 16.5 29 16.5
v 16.5 29 -16.5
v 16.5 34 16.5
v 16.5 34 -16.5
v 19.5 23 19.5
v 19.5 23 -19.5
v 19.5 29 19.5
v 19.5 29 -19.5
v 22.5 18 22.5
v 22.5 18 -22.5
v 22.5 23 22.5
v 22.5 23 -22.5
v -22.5 18 22.5
v -22.5 23 22.5
v 22.5 18 22.5
v 22.5 23 22.5
v -19.5 23 19.5
v -19.5 29 19.5
v 19.5 23 19.5
v 19.5 29 19.5
v -16.5 29 16.5
v -16.5 34 16.5
v 16.5 29 16.5
v 16.5 34 16.5
v -13.5 34 13.5
v -13.5 40 13.5
v 13.5 34 13.5
v 13.5 40 13.5
v -10.5 40 10.5
v -10.5 46 10.5
v 10.5 40 10.5
v 10.5 46 10.5
v -2.5 0 8.5
v -2.5 1 8.5
v 2.5 0 8.5
v 2.5 1 8.5
v -7.5 46 7.5
v -7.5 51 7.5
v -4.5 0 7.5
v -4.5 1 7.5
v -2.5 0 7.5
v -2.5 1 7.5
v 2.5 0 7.5
v 2.5 1 7.5
v 4.5 0 7.5
v 4.5 1 7.5
v 7.5 46 7.5
v 7.5 51 7.5
v -6.5 0 6.5
v -6.5 1 6.5
v -4.5 0 6.5
v -4.5 1 6.5
v -2.5 1 6.5
v -2.5 2 6.5
v 2.5 1 6.5
v 2.5 2 6.5
v 4.5 0 6.5
v 4.5 1 6.5
v 6.5 0 6.5
v 6.5 1 6.5
v -4.5 1 5.5
v -4.5 2 5.5
v -2.5 1 5.5
v -2.5 2 5.5
v 2.5 1 5.5
v 2.5 2 5.5
v 4.5 1 5.5
v 4.5 2 5.5
v -7.5 0 4.5
v -7.5 1 4.5
v -6.5 0 4.5
v -6.5 1 4.5
v -5.5 1 4.5
v -5.5 2 4.5
v -4.5 1 4.5
v -4.5 2 4.5
v -4.5 51 4.5
v -4.5 57 4.5
v -2.5 2 4.5
v -2.5 18 4.5
v 2.5 2 4.5
v 2.5 18 4.5
v 4.5 1 4.5
v 4.5 2 4.5
v 4.5 51 4.5
v 4.5 57 4.5
v 5.5 1 4.5
v 5.5 2 4.5
v 6.5 0 4.5
v 6.5 1 4.5
v 7.5 0 4.5
v 7.5 1 4.5
v -3.5 2 3.5
v -3.5 18 3.5
v -2.5 2 3.5
v -2.5 18 3.5
v 2.5 2 3.5
v 2.5 18 3.5
v 3.5 2 3.5
v 3.5 18 3.5
v -8.5 0 2.5
v -8.5 1 2.5
v -7.5 0 2.5
v -7.5 1 2.5
v -6.5 1 2.5
v -6.5 2 2.5
v -5.5 1 2.5
v -5.5 2 2.5
v -4.5 2 2.5
v -4.5 18 2.5
v -3.5 2 2.5
v -3.5 18 2.5
v 3.5 2 2.5
v 3.5 18 2.5
v 4.5 2 2.5
v 4.5 18 2.5
v 5.5 1 2.5
v 5.5 2 2.5
v 6.5 1 2.5
v 6.5 2 2.5
v 7.5 0 2.5
v 7.5 1 2.5
v 8.5 0 2.5
v 8.5 1 2.5
v -8.5 0 -2.5
v -8.5 1 -2.5
v -7.5 0 -2.5
v -7.5 1 -2.5
v -6.5 1 -2.5
v -6.5 2 -2.5
v -5.5 1 -2.5
v -5.5 2 -2.5
v -4.5 2 -2.5
v -4.5 18 -2.5
v -3.5 2 -2.5
v -3.5 18 -2.5
v 3.5 2 -2.5
v 3.5 18 -2.5
v 4.5 2 -2.5
v 4.5 18 -2.5
v 5.5 1 -2.5
v 5.5 2 -2.5
v 6.5 1 -2.5
v 6.5 2 -2.5
v 7.5 0 -2.5
v 7.5 1 -2.5
v 8.5 0 -2.5
v 8.5 1 -2.5
v -3.5 2 -3.5
v -3.5 18 -3.5
v -2.5 2 -3.5
v -2.5 18 -3.5
v 2.5 2 -3.5
v 2.5 18 -3.5
v 3.5 2 -3.5
v 3.5 18 -3.5
v -7.5 0 -4.5
v -7.5 1 -4.5
v -6.5 0 -4.5
v -6.5 1 -4.5
v -5.5 1 -4.5
v -5.5 2 -4.5
v -4.5 1 -4.5
v -4.5 2 -4.5
v -4.5 51 -4.5
v -4.5 57 -4.5
v -2.5 2 -4.5
v -2.5 18 -4.5
v 2.5 2 -4.5
v 2.5 18 -4.5
v 4.5 1 -4.5
v 4.5 2 -4.5
v 4.5 51 -4.5
v 4.5 57 -4.5
v 5.5 1 -4.5
v 5.5 2 -4.5
v 6.5 0 -4.5
v 6.5 1 -4.5
v 7.5 0 -4.5
v 7.5 1 -4.5
v -4.5 1 -5.5
v -4.5 2 -5.5
v -2.5 1 -5.5
v -2.5 2 -5.5
v 2.5 1 -5.5
v 2.5 2 -5.5
v 4.5 1 -5.5
v 4.5 2 -5.5
v -6.5 0 -6.5
v -6.5 1 -6.5
v -4.5 0 -6.5
v -4.5 1 -6.5
v -2.5 1 -6.5
v -2.5 2 -6.5
v 2.5 1 -6.5
v 2.5 2 -6.5
v 4.5 0 -6.5
v 4.5 1 -6.5
v 6.5 0 -6.5
v 6.5 1 -6.5
v -7.5 46 -7.5
v -7.5 51 -7.5
v -4.5 0 -7.5
v -4.5 1 -7.5
v -2.5 0 -7.5
v -2.5 1 -7.5
v 2.5 0 -7.5
v 2.5 1 -7.5
v 4.5 0 -7.5
v 4.5 1 -7.5
v 7.5 46 -7.5
v 7.5 51 -7.5
v -2.5 0 -8.5
v -2.5 1 -8.5
v 2.5 0 -8.5
v 2.5 1 -8.5
v -10.5 40 -10.5
v -10.5 46 -10.5
v 10.5 40 -10.5
v 10.5 46 -10.5
v -13.5 34 -13.5
v -13.5 40 -13.5
v 13.5 34 -13.5
v 13.5 40 -13.5
v -16.5 29 -16.5
v -16.5 34 -16.5
v 16.5 29 -16.5
v 16.5 34 -16.5
v -19.5 23 -19.5
v -19.5 29 -19.5
v 19.5 23 -19.5
v 19.5 29 -19.5
v -22.5 18 -22.5
v -22.5 23 -22.5
v 22.5 18 -22.5
v 22.5 23 -22.5
v -2.5 0 8.5
v 2.5 0 8.5
v -4.5 0 7.5
v -2.5 0 7.5
v 2.5 0 7.5
v 4.5 0 7.5
v -6.5 0 6.5
v -4.5 0 6.5
v 4.5 0 6.5
v 6.5 0 6.5
v -7.5 0 4.5
v -6.5 0 4.5
v 6.5 0 4.5
v 7.5 0 4.5
v -8.5 0 2.5
v -7.5 0 2.5
v 7.5 0 2.5
v 8.5 0 2.5
v -8.5 0 -2.5
v -7.5 0 -2.5
v 7.5 0 -2.5
v 8.5 0 -2.5
v -7.5 0 -4.5
v -6.5 0 -4.5
v 6.5 0 -4.5
v 7.5 0 -4.5
v -6.5 0 -6.5
v -4.5 0 -6.5
v 4.5 0 -6.5
v 6.5 0 -6.5
v -4.5 0 -7.5
v -2.5 0 -7.5
v 2.5 0 -7.5
v 4.5 0 -7.5
v -2.5 0 -8.5
v 2.5 0 -8.5
v -22.5 18 22.5
v 22.5 18 22.5
v -2.5 18 4.5
v 2.5 18 4.5
v -3.5 18 3.5
v -2.5 18 3.5
v 2.5 18 3.5
v 3.5 18 3.5
v -4.5 18 2.5
v -3.5 18 2.5
v 3.5 18 2.5
v 4.5 18 2.5
v -4.5 18 -2.5
v -3.5 18 -2.5
v 3.5 18 -2.5
v 4.5 18 -2.5
v -3.5 18 -3.5
v -2.5 18 -3.5
v 2.5 18 -3.5
v 3.5 18 -3.5
v -2.5 18 -4.5
v 2.5 18 -4.5
v -22.5 18 -22.5
v 22.5 18 -22.5
v -2.5 1 8.5
v 2.5 1 8.5
v -4.5 1 7.5
v -2.5 1 7.5
v 2.5 1 7.5
v 4.5 1 7.5
v -6.5 1 6.5
v -4.5 1 6.5
v -2.5 1 6.5
v 2.5 1 6.5
v 4.5 1 6.5
v 6.5 1 6.5
v -4.5 1 5.5
v -2.5 1 5.5
v 2.5 1 5.5
v 4.5 1 5.5
v -7.5 1 4.5
v -6.5 1 4.5
v -5.5 1 4.5
v -4.5 1 4.5
v 4.5 1 4.5
v 5.5 1 4.5
v 6.5 1 4.5
v 7.5 1 4.5
v -8.5 1 2.5
v -7.5 1 2.5
v -6.5 1 2.5
v -5.5 1 2.5
v 5.5 1 2.5
v 6.5 1 2.5
v 7.5 1 2.5
v 8.5 1 2.5
v -8.5 1 -2.5
v -7.5 1 -2.5
v -6.5 1 -2.5
v -5.5 1 -2.5
v 5.5 1 -2.5
v 6.5 1 -2.5
v 7.5 1 -2.5
v 8.5 1 -2.5
v -7.5 1 -4.5
v -6.5 1 -4.5
v -5.5 1 -4.5
v -4.5 1 -4.5
v 4.5 1 -4.5
v 5.5 1 -4.5
v 6.5 1 -4.5
v 7.5 1 -4.5
v -4.5 1 -5.5
v -2.5 1 -5.5
v 2.5 1 -5.5
v 4.5 1 -5.5
v -6.5 1 -6.5
v -4.5 1 -6.5
v -2.5 1 -6.5
v 2.5 1 -6.5
v 4.5 1 -6.5
v 6.5 1 -6.5
v -4.5 1 -7.5
v -2.5 1 -7.5
v 2.5 1 -7.5
v 4.5 1 -7.5
v -2.5 1 -8.5
v 2.5 1 -8.5
v -2.5 2 6.5
v 2.5 2 6.5
v -4.5 2 5.5
v -2.5 2 5.5
v 2.5 2 5.5
v 4.5 2 5.5
v -5.5 2 4.5
v -4.5 2 4.5
v -2.5 2 4.5
v 2.5 2 4.5
v 4.5 2 4.5
v 5.5 2 4.5
v -3.5 2 3.5
v -2.5 2 3.5
v 2.5 2 3.5
v 3.5 2 3.5
v -6.5 2 2.5
v -5.5 2 2.5
v -4.5 2 2.5
v -3.5 2 2.5
v 3.5 2 2.5
v 4.5 2 2.5
v 5.5 2 2.5
v 6.5 2 2.5
v -6.5 2 -2.5
v -5.5 2 -2.5
v -4.5 2 -2.5
v -3.5 2 -2.5
v 3.5 2 -2.5
v 4.5 2 -2.5
v 5.5 2 -2.5
v 6.5 2 -2.5
v -3.5 2 -3.5
v -2.5 2 -3.5
v 2.5 2 -3.5
v 3.5 2 -3.5
v -5.5 2 -4.5
v -4.5 2 -4.5
v -2.5 2 -4.5
v 2.5 2 -4.5
v 4.5 2 -4.5
v 5.5 2 -4.5
v -4.5 2 -5.5
v -2.5 2 -5.5
v 2.5 2 -5.5
v 4.5 2 -5.5
v -2.5 2 -6.5
v 2.5 2 -6.5
v -22.5 23 22.5
v 22.5 23 22.5
v -19.5 23 19.5
v 19.5 23 19.5
v -19.5 23 -19.5
v 19.5 23 -19.5
v -22.5 23 -22.5
v 22.5 23 -22.5
v -19.5 29 19.5
v 19.5 29 19.5
v -16.5 29 16.5
v 16.5 29 16.5
v -16.5 29 -16.5
v 16.5 29 -16.5
v -19.5 29 -19.5
v 19.5 29 -19.5
v -16.5 34 16.5
v 16.5 34 16.5
v -13.5 34 13.5
v 13.5 34 13.5
v -13.5 34 -13.5
v 13.5 34 -13.5
v -16.5 34 -16.5
v 16.5 34 -16.5
v -13.5 40 13.5
v 13.5 40 13.5
v -10.5 40 10.5
v 10.5 40 10.5
v -10.5 40 -10.5
v 10.5 40 -10.5
v -13.5 40 -13.5
v 13.5 40 -13.5
v -10.5 46 10.5
v 10.5 46 10.5
v -7.5 46 7.5
v 7.5 46 7.5
v -7.5 46 -7.5
v 7.5 46 -7.5
v -10.5 46 -10.5
v 10.5 46 -10.5
v -7.5 51 7.5
v 7.5 51 7.5
v -4.5 51 4.5
v 4.5 51 4.5
v -4.5 51 -4.5
v 4.5 51 -4.5
v -7.5 51 -7.5
v 7.5 51 -7.5
v -4.5 57 4.5
v 4.5 57 4.5
v -4.5 57 -4.5
v 4.5 57 -4.5

# faces
f 3/2/1 2/2/1 1/2/1
f 4/2/1 2/2/1 3/2/1
f 7/2/1 6/2/1 5/2/1
f 8/2/1 6/2/1 7/2/1
f 11/2/1 10/2/1 9/2/1
f 12/2/1 10/2/1 11/2/1
f 15/2/1 14/2/1 13/2/1
f 16/2/1 14/2/1 15/2/1
f 19/2/1 18/2/1 17/2/1
f 20/2/1 18/2/1 19/2/1
f 23/1/1 22/1/1 21/1/1
f 24/1/1 22/1/1 23/1/1
f 29/1/1 26/1/1 25/1/1
f 30/1/1 26/1/1 29/1/1
f 31/1/1 28/1/1 27/1/1
f 32/1/1 28/1/1 31/1/1
f 35/2/1 34/2/1 33/2/1
f 36/2/1 34/2/1 35/2/1
f 41/1/1 38/1/1 37/1/1
f 42/1/1 38/1/1 41/1/1
f 45/1/1 40/1/1 39/1/1
f 46/1/1 40/1/1 45/1/1
f 47/1/1 44/1/1 43/1/1
f 48/1/1 44/1/1 47/1/1
f 53/1/1 50/1/1 49/1/1
f 54/1/1 50/1/1 53/1/1
f 55/1/1 52/1/1 51/1/1
f 56/1/1 52/1/1 55/1/1
f 61/1/1 58/1/1 57/1/1
f 62/1/1 58/1/1 61/1/1
f 67/1/1 60/1/1 59/1/1
f 68/1/1 60/1/1 67/1/1
f 69/1/1 64/1/1 63/1/1
f 70/1/1 64/1/1 69/1/1
f 73/1/1 66/1/1 65/1/1
f 74/1/1 66/1/1 73/1/1
f 75/1/1 72/1/1 71/1/1
f 76/1/1 72/1/1 75/1/1
f 79/2/1 78/2/1 77/2/1
f 80/2/1 78/2/1 79/2/1
f 85/1/1 82/1/1 81/1/1
f 86/1/1 82/1/1 85/1/1
f 87/1/1 84/1/1 83/1/1
f 88/1/1 84/1/1 87/1/1
f 93/1/1 90/1/1 89/1/1
f 94/1/1 90/1/1 93/1/1
f 99/1/1 92/1/1 91/1/1
f 100/1/1 92/1/1 99/1/1
f 101/1/1 96/1/1 95/1/1
f 102/1/1 96/1/1 101/1/1
f 107/1/1 98/1/1 97/1/1
f 108/1/1 98/1/1 107/1/1
f 109/1/1 104/1/1 103/1/1
f 110/1/1 104/1/1 109/1/1
f 111/1/1 106/1/1 105/1/1
f 112/1/1 106/1/1 111/1/1
f 113/1/2 114/1/2 117/1/2
f 117/1/2 114/1/2 118/1/2
f 115/1/2 116/1/2 123/1/2
f 123/1/2 116/1/2 124/1/2
f 119/1/2 120/1/2 125/1/2
f 125/1/2 120/1/2 126/1/2
f 121/1/2 122/1/2 131/1/2
f 131/1/2 122/1/2 132/1/2
f 127/1/2 128/1/2 133/1/2
f 133/1/2 128/1/2 134/1/2
f 129/1/2 130/1/2 135/1/2
f 135/1/2 130/1/2 136/1/2
f 137/1/2 138/1/2 141/1/2
f 141/1/2 138/1/2 142/1/2
f 139/1/2 140/1/2 143/1/2
f 143/1/2 140/1/2 144/1/2
f 145/1/2 146/1/2 149/1/2
f 149/1/2 146/1/2 150/1/2
f 147/1/2 148/1/2 155/1/2
f 155/1/2 148/1/2 156/1/2
f 151/1/2 152/1/2 157/1/2
f 157/1/2 152/1/2 158/1/2
f 153/1/2 154/1/2 161/1/2
f 161/1/2 154/1/2 162/1/2
f 159/1/2 160/1/2 163/1/2
f 163/1/2 160/1/2 164/1/2
f 165/2/2 166/2/2 167/2/2
f 167/2/2 166/2/2 168/2/2
f 169/1/2 170/1/2 173/1/2
f 173/1/2 170/1/2 174/1/2
f 171/1/2 172/1/2 175/1/2
f 175/1/2 172/1/2 176/1/2
f 177/1/2 178/1/2 181/1/2
f 181/1/2 178/1/2 182/1/2
f 179/1/2 180/1/2 185/1/2
f 185/1/2 180/1/2 186/1/2
f 183/1/2 184/1/2 187/1/2
f 187/1/2 184/1/2 188/1/2
f 189/1/2 190/1/2 193/1/2
f 193/1/2 190/1/2 194/1/2
f 191/1/2 192/1/2 195/1/2
f 195/1/2 192/1/2 196/1/2
f 197/2/2 198/2/2 199/2/2
f 199/2/2 198/2/2 200/2/2
f 201/1/2 202/1/2 203/1/2
f 203/1/2 202/1/2 204/1/2
f 205/2/2 206/2/2 207/2/2
f 207/2/2 206/2/2 208/2/2
f 209/2/2 210/2/2 211/2/2
f 211/2/2 210/2/2 212/2/2
f 213/2/2 214/2/2 215/2/2
f 215/2/2 214/2/2 216/2/2
f 217/2/2 218/2/2 219/2/2
f 219/2/2 218/2/2 220/2/2
f 221/2/2 222/2/2 223/2/2
f 223/2/2 222/2/2 224/2/2
f 227/2/3 226/2/3 225/2/3
f 228/2/3 226/2/3 227/2/3
f 231/2/3 230/2/3 229/2/3
f 232/2/3 230/2/3 231/2/3
f 235/2/3 234/2/3 233/2/3
f 236/2/3 234/2/3 235/2/3
f 239/2/3 238/2/3 237/2/3
f 240/2/3 238/2/3 239/2/3
f 243/2/3 242/2/3 241/2/3
f 244/2/3 242/2/3 243/2/3
f 247/1/3 246/1/3 245/1/3
f 248/1/3 246/1/3 247/1/3
f 253/1/3 252/1/3 251/1/3
f 254/1/3 252/1/3 253/1/3
f 257/1/3 256/1/3 255/1/3
f 258/1/3 256/1/3 257/1/3
f 259/2/3 250/2/3 249/2/3
f 260/2/3 250/2/3 259/2/3
f 263/1/3 262/1/3 261/1/3
f 264/1/3 262/1/3 263/1/3
f 267/1/3 266/1/3 265/1/3
f 268/1/3 266/1/3 267/1/3
f 271/1/3 270/1/3 269/1/3
f 272/1/3 270/1/3 271/1/3
f 275/1/3 274/1/3 273/1/3
f 276/1/3 274/1/3 275/1/3
f 279/1/3 278/1/3 277/1/3
f 280/1/3 278/1/3 279/1/3
f 283/1/3 282/1/3 281/1/3
f 284/1/3 282/1/3 283/1/3
f 287/1/3 286/1/3 285/1/3
f 288/1/3 286/1/3 287/1/3
f 293/1/3 292/1/3 291/1/3
f 294/1/3 292/1/3 293/1/3
f 297/2/3 290/2/3 289/2/3
f 298/2/3 290/2/3 297/2/3
f 299/1/3 296/1/3 295/1/3
f 300/1/3 296/1/3 299/1/3
f 303/1/3 302/1/3 301/1/3
f 304/1/3 302/1/3 303/1/3
f 307/1/3 306/1/3 305/1/3
f 308/1/3 306/1/3 307/1/3
f 311/1/3 310/1/3 309/1/3
f 312/1/3 310/1/3 311/1/3
f 315/1/3 314/1/3 313/1/3
f 316/1/3 314/1/3 315/1/3
f 319/1/3 318/1/3 317/1/3
f 320/1/3 318/1/3 319/1/3
f 323/1/3 322/1/3 321/1/3
f 324/1/3 322/1/3 323/1/3
f 327/1/3 326/1/3 325/1/3
f 328/1/3 326/1/3 327/1/3
f 331/1/3 330/1/3 329/1/3
f 332/1/3 330/1/3 331/1/3
f 335/1/3 334/1/3 333/1/3
f 336/1/3 334/1/3 335/1/3
f 337/1/4 338/1/4 339/1/4
f 339/1/4 338/1/4 340/1/4
f 341/1/4 342/1/4 343/1/4
f 343/1/4 342/1/4 344/1/4
f 345/1/4 346/1/4 347/1/4
f 347/1/4 346/1/4 348/1/4
f 349/1/4 350/1/4 351/1/4
f 351/1/4 350/1/4 352/1/4
f 353/1/4 354/1/4 355/1/4
f 355/1/4 354/1/4 356/1/4
f 357/1/4 358/1/4 359/1/4
f 359/1/4 358/1/4 360/1/4
f 361/1/4 362/1/4 363/1/4
f 363/1/4 362/1/4 364/1/4
f 365/1/4 366/1/4 367/1/4
f 367/1/4 366/1/4 368/1/4
f 369/1/4 370/1/4 371/1/4
f 371/1/4 370/1/4 372/1/4
f 373/1/4 374/1/4 375/1/4
f 375/1/4 374/1/4 376/1/4
f 379/1/4 380/1/4 381/1/4
f 381/1/4 380/1/4 382/1/4
f 377/2/4 378/2/4 385/2/4
f 385/2/4 378/2/4 386/2/4
f 383/1/4 384/1/4 387/1/4
f 387/1/4 384/1/4 388/1/4
f 389/1/4 390/1/4 391/1/4
f 391/1/4 390/1/4 392/1/4
f 393/1/4 394/1/4 395/1/4
f 395/1/4 394/1/4 396/1/4
f 397/1/4 398/1/4 399/1/4
f 399/1/4 398/1/4 400/1/4
f 401/1/4 402/1/4 403/1/4
f 403/1/4 402/1/4 404/1/4
f 405/1/4 406/1/4 407/1/4
f 407/1/4 406/1/4 408/1/4
f 409/1/4 410/1/4 411/1/4
f 411/1/4 410/1/4 412/1/4
f 415/1/4 416/1/4 417/1/4
f 417/1/4 416/1/4 418/1/4
f 419/1/4 420/1/4 421/1/4
f 421/1/4 420/1/4 422/1/4
f 413/2/4 414/2/4 423/2/4
f 423/2/4 414/2/4 424/2/4
f 425/1/4 426/1/4 427/1/4
f 427/1/4 426/1/4 428/1/4
f 429/2/4 430/2/4 431/2/4
f 431/2/4 430/2/4 432/2/4
f 433/2/4 434/2/4 435/2/4
f 435/2/4 434/2/4 436/2/4
f 437/2/4 438/2/4 439/2/4
f 439/2/4 438/2/4 440/2/4
f 441/2/4 442/2/4 443/2/4
f 443/2/4 442/2/4 444/2/4
f 445/2/4 446/2/4 447/2/4
f 447/2/4 446/2/4 448/2/4
f 452/1/5 450/1/5 449/1/5
f 453/1/5 450/1/5 452/1/5
f 456/1/5 452/1/5 451/1/5
f 456/1/5 454/1/5 453/1/5
f 456/1/5 453/1/5 452/1/5
f 457/1/5 454/1/5 456/1/5
f 460/1/5 456/1/5 455/1/5
f 460/1/5 458/1/5 457/1/5
f 460/1/5 457/1/5 456/1/5
f 461/1/5 458/1/5 460/1/5
f 464/1/5 460/1/5 459/1/5
f 464/1/5 462/1/5 461/1/5
f 464/1/5 461/1/5 460/1/5
f 465/1/5 462/1/5 464/1/5
f 467/1/5 464/1/5 463/1/5
f 467/1/5 466/1/5 465/1/5
f 467/1/5 465/1/5 464/1/5
f 468/1/5 466/1/5 467/1/5
f 469/1/5 466/1/5 468/1/5
f 470/1/5 466/1/5 469/1/5
f 471/1/5 469/1/5 468/1/5
f 472/1/5 469/1/5 471/1/5
f 473/1/5 469/1/5 472/1/5
f 474/1/5 469/1/5 473/1/5
f 475/1/5 473/1/5 472/1/5
f 476/1/5 473/1/5 475/1/5
f 477/1/5 473/1/5 476/1/5
f 478/1/5 473/1/5 477/1/5
f 479/1/5 477/1/5 476/1/5
f 480/1/5 477/1/5 479/1/5
f 481/1/5 477/1/5 480/1/5
f 482/1/5 477/1/5 481/1/5
f 483/1/5 481/1/5 480/1/5
f 484/1/5 481/1/5 483/1/5
f 487/2/5 486/2/5 485/2/5
f 488/2/5 486/2/5 487/2/5
f 489/2/5 487/2/5 485/2/5
f 490/2/5 487/2/5 489/2/5
f 491/2/5 486/2/5 488/2/5
f 492/2/5 486/2/5 491/2/5
f 493/2/5 489/2/5 485/2/5
f 494/2/5 489/2/5 493/2/5
f 495/2/5 486/2/5 492/2/5
f 496/2/5 486/2/5 495/2/5
f 497/2/5 493/2/5 485/2/5
f 500/2/5 486/2/5 496/2/5
f 501/2/5 498/2/5 497/2/5
f 504/2/5 500/2/5 499/2/5
f 505/2/5 502/2/5 501/2/5
f 506/2/5 504/2/5 503/2/5
f 507/2/5 505/2/5 501/2/5
f 507/2/5 506/2/5 505/2/5
f 507/2/5 497/2/5 485/2/5
f 507/2/5 501/2/5 497/2/5
f 508/2/5 504/2/5 506/2/5
f 508/2/5 506/2/5 507/2/5
f 508/2/5 486/2/5 500/2/5
f 508/2/5 500/2/5 504/2/5
f 509/1/6 510/1/6 512/1/6
f 512/1/6 510/1/6 513/1/6
f 511/1/6 512/1/6 516/1/6
f 513/1/6 514/1/6 516/1/6
f 512/1/6 513/1/6 516/1/6
f 516/1/6 514/1/6 517/1/6
f 517/1/6 514/1/6 518/1/6
f 518/1/6 514/1/6 519/1/6
f 515/1/6 516/1/6 521/1/6
f 516/1/6 517/1/6 521/1/6
f 521/1/6 517/1/6 522/1/6
f 519/1/6 520/1/6 523/1/6
f 518/1/6 519/1/6 523/1/6
f 523/1/6 520/1/6 524/1/6
f 515/1/6 521/1/6 526/1/6
f 526/1/6 521/1/6 527/1/6
f 527/1/6 521/1/6 528/1/6
f 524/1/6 520/1/6 529/1/6
f 529/1/6 520/1/6 530/1/6
f 530/1/6 520/1/6 531/1/6
f 525/1/6 526/1/6 534/1/6
f 526/1/6 527/1/6 534/1/6
f 534/1/6 527/1/6 535/1/6
f 535/1/6 527/1/6 536/1/6
f 531/1/6 532/1/6 537/1/6
f 530/1/6 531/1/6 537/1/6
f 537/1/6 532/1/6 538/1/6
f 538/1/6 532/1/6 539/1/6
f 534/1/6 535/1/6 541/1/6
f 533/1/6 534/1/6 541/1/6
f 541/1/6 535/1/6 542/1/6
f 542/1/6 535/1/6 543/1/6
f 539/1/6 540/1/6 546/1/6
f 538/1/6 539/1/6 546/1/6
f 546/1/6 540/1/6 547/1/6
f 547/1/6 540/1/6 548/1/6
f 543/1/6 544/1/6 549/1/6
f 542/1/6 543/1/6 549/1/6
f 549/1/6 544/1/6 550/1/6
f 550/1/6 544/1/6 551/1/6
f 546/1/6 547/1/6 554/1/6
f 545/1/6 546/1/6 554/1/6
f 554/1/6 547/1/6 555/1/6
f 555/1/6 547/1/6 556/1/6
f 551/1/6 552/1/6 557/1/6
f 550/1/6 551/1/6 557/1/6
f 554/1/6 555/1/6 560/1/6
f 553/1/6 554/1/6 560/1/6
f 557/1/6 558/1/6 561/1/6
f 550/1/6 557/1/6 561/1/6
f 561/1/6 558/1/6 562/1/6
f 562/1/6 558/1/6 563/1/6
f 559/1/6 560/1/6 564/1/6
f 560/1/6 555/1/6 565/1/6
f 564/1/6 560/1/6 565/1/6
f 565/1/6 555/1/6 566/1/6
f 562/1/6 563/1/6 567/1/6
f 563/1/6 564/1/6 567/1/6
f 564/1/6 565/1/6 567/1/6
f 567/1/6 565/1/6 568/1/6
f 568/1/6 565/1/6 569/1/6
f 569/1/6 565/1/6 570/1/6
f 568/1/6 569/1/6 571/1/6
f 571/1/6 569/1/6 572/1/6
f 573/1/6 574/1/6 576/1/6
f 576/1/6 574/1/6 577/1/6
f 575/1/6 576/1/6 580/1/6
f 577/1/6 578/1/6 580/1/6
f 576/1/6 577/1/6 580/1/6
f 580/1/6 578/1/6 581/1/6
f 581/1/6 578/1/6 582/1/6
f 582/1/6 578/1/6 583/1/6
f 579/1/6 580/1/6 585/1/6
f 580/1/6 581/1/6 585/1/6
f 585/1/6 581/1/6 586/1/6
f 583/1/6 584/1/6 587/1/6
f 582/1/6 583/1/6 587/1/6
f 587/1/6 584/1/6 588/1/6
f 579/1/6 585/1/6 590/1/6
f 590/1/6 585/1/6 591/1/6
f 591/1/6 585/1/6 592/1/6
f 588/1/6 584/1/6 593/1/6
f 593/1/6 584/1/6 594/1/6
f 594/1/6 584/1/6 595/1/6
f 589/1/6 590/1/6 597/1/6
f 590/1/6 591/1/6 597/1/6
f 597/1/6 591/1/6 598/1/6
f 598/1/6 591/1/6 599/1/6
f 595/1/6 596/1/6 602/1/6
f 594/1/6 595/1/6 602/1/6
f 602/1/6 596/1/6 603/1/6
f 603/1/6 596/1/6 604/1/6
f 599/1/6 600/1/6 605/1/6
f 598/1/6 599/1/6 605/1/6
f 602/1/6 603/1/6 608/1/6
f 601/1/6 602/1/6 608/1/6
f 605/1/6 606/1/6 609/1/6
f 598/1/6 605/1/6 609/1/6
f 609/1/6 606/1/6 610/1/6
f 610/1/6 606/1/6 611/1/6
f 607/1/6 608/1/6 612/1/6
f 608/1/6 603/1/6 613/1/6
f 612/1/6 608/1/6 613/1/6
f 613/1/6 603/1/6 614/1/6
f 610/1/6 611/1/6 615/1/6
f 611/1/6 612/1/6 615/1/6
f 612/1/6 613/1/6 615/1/6
f 615/1/6 613/1/6 616/1/6
f 616/1/6 613/1/6 617/1/6
f 617/1/6 613/1/6 618/1/6
f 616/1/6 617/1/6 619/1/6
f 619/1/6 617/1/6 620/1/6
f 621/2/6 622/2/6 623/2/6
f 623/2/6 622/2/6 624/2/6
f 621/2/6 623/2/6 625/2/6
f 624/2/6 622/2/6 626/2/6
f 621/2/6 625/2/6 627/2/6
f 625/2/6 626/2/6 627/2/6
f 626/2/6 622/2/6 628/2/6
f 627/2/6 626/2/6 628/2/6
f 629/2/6 630/2/6 631/2/6
f 631/2/6 630/2/6 632/2/6
f 629/2/6 631/2/6 633/2/6
f 632/2/6 630/2/6 634/2/6
f 629/2/6 633/2/6 635/2/6
f 633/2/6 634/2/6 635/2/6
f 634/2/6 630/2/6 636/2/6
f 635/2/6 634/2/6 636/2/6
f 637/2/6 638/2/6 639/2/6
f 639/2/6 638/2/6 640/2/6
f 637/2/6 639/2/6 641/2/6
f 640/2/6 638/2/6 642/2/6
f 637/2/6 641/2/6 643/2/6
f 641/2/6 642/2/6 643/2/6
f 642/2/6 638/2/6 644/2/6
f 643/2/6 642/2/6 644/2/6
f 645/2/6 646/2/6 647/2/6
f 647/2/6 646/2/6 648/2/6
f 645/2/6 647/2/6 649/2/6
f 648/2/6 646/2/6 650/2/6
f 645/2/6 649/2/6 651/2/6
f 649/2/6 650/2/6 651/2/6
f 650/2/6 646/2/6 652/2/6
f 651/2/6 650/2/6 652/2/6
f 653/2/6 654/2/6 655/2/6
f 655/2/6 654/2/6 656/2/6
f 653/2/6 655/2/6 657/2/6
f 656/2/6 654/2/6 658/2/6
f 653/2/6 657/2/6 659/2/6
f 657/2/6 658/2/6 659/2/6
f 658/2/6 654/2/6 660/2/6
f 659/2/6 658/2/6 660/2/6
f 661/2/6 662/2/6 663/2/6
f 663/2/6 662/2/6 664/2/6
f 661/2/6 663/2/6 665/2/6
f 664/2/6 662/2/6 666/2/6
f 661/2/6 665/2/6 667/2/6
f 665/2/6 666/2/6 667/2/6
f 666/2/6 662/2/6 668/2/6
f 667/2/6 666/2/6 668/2/6
f 669/2/6 670/2/6 671/2/6
f 671/2/6 670/2/6 672/2/6
